<svg class="marks" width="950" height="525" viewBox="0 0 950 525" version="1.1" xmlns="http://www.w3.org/2000/svg" xmlns:xlink="http://www.w3.org/1999/xlink"><g transform="translate(118,5)"><g class="mark-group role-frame root"><g transform="translate(0,0)"><path class="background" d="M0.5,0.5h640v480h-640Z" style="fill: none; stroke: #ddd;"></path><g><g class="mark-group role-axis"><g transform="translate(0.5,480.5)"><path class="background" d="M0,0h0v0h0Z" style="pointer-events: none; fill: none;"></path><g><g class="mark-rule role-axis-grid" style="pointer-events: none;"><line transform="translate(0,0)" x2="0" y2="-480" style="fill: none; stroke: #ddd; stroke-width: 1; opacity: 1;"></line><line transform="translate(40,0)" x2="0" y2="-480" style="fill: none; stroke: #ddd; stroke-width: 1; opacity: 1;"></line><line transform="translate(80,0)" x2="0" y2="-480" style="fill: none; stroke: #ddd; stroke-width: 1; opacity: 1;"></line><line transform="translate(120,0)" x2="0" y2="-480" style="fill: none; stroke: #ddd; stroke-width: 1; opacity: 1;"></line><line transform="translate(160,0)" x2="0" y2="-480" style="fill: none; stroke: #ddd; stroke-width: 1; opacity: 1;"></line><line transform="translate(200,0)" x2="0" y2="-480" style="fill: none; stroke: #ddd; stroke-width: 1; opacity: 1;"></line><line transform="translate(240,0)" x2="0" y2="-480" style="fill: none; stroke: #ddd; stroke-width: 1; opacity: 1;"></line><line transform="translate(280,0)" x2="0" y2="-480" style="fill: none; stroke: #ddd; stroke-width: 1; opacity: 1;"></line><line transform="translate(320,0)" x2="0" y2="-480" style="fill: none; stroke: #ddd; stroke-width: 1; opacity: 1;"></line><line transform="translate(360,0)" x2="0" y2="-480" style="fill: none; stroke: #ddd; stroke-width: 1; opacity: 1;"></line><line transform="translate(400,0)" x2="0" y2="-480" style="fill: none; stroke: #ddd; stroke-width: 1; opacity: 1;"></line><line transform="translate(440,0)" x2="0" y2="-480" style="fill: none; stroke: #ddd; stroke-width: 1; opacity: 1;"></line><line transform="translate(480,0)" x2="0" y2="-480" style="fill: none; stroke: #ddd; stroke-width: 1; opacity: 1;"></line><line transform="translate(520,0)" x2="0" y2="-480" style="fill: none; stroke: #ddd; stroke-width: 1; opacity: 1;"></line><line transform="translate(560,0)" x2="0" y2="-480" style="fill: none; stroke: #ddd; stroke-width: 1; opacity: 1;"></line><line transform="translate(600,0)" x2="0" y2="-480" style="fill: none; stroke: #ddd; stroke-width: 1; opacity: 1;"></line><line transform="translate(640,0)" x2="0" y2="-480" style="fill: none; stroke: #ddd; stroke-width: 1; opacity: 1;"></line></g></g></g></g><g class="mark-rect role-mark marks"><path d="M240,1.7142857142857224h0v30.857142857142858h0Z" style="fill: #c30d24;"></path><path d="M240,1.7142857142857224h0v30.857142857142858h0Z" style="fill: #f3a583;"></path><path d="M240,1.7142857142857224h200.00400000000002v30.857142857142858h-200.00400000000002Z" style="fill: #94c6da;"></path><path d="M440.004,1.7142857142857224h133.336v30.857142857142858h-133.336Z" style="fill: #1770ab;"></path><path d="M173.332,36.00000000000001h66.668v30.857142857142858h-66.668Z" style="fill: #c30d24;"></path><path d="M240,36.00000000000001h0v30.857142857142858h0Z" style="fill: #f3a583;"></path><path d="M240,36.00000000000001h200.00400000000002v30.857142857142858h-200.00400000000002Z" style="fill: #94c6da;"></path><path d="M440.004,36.00000000000001h66.668v30.857142857142858h-66.668Z" style="fill: #1770ab;"></path><path d="M173.332,70.28571428571429h66.668v30.857142857142858h-66.668Z" style="fill: #c30d24;"></path><path d="M240,70.28571428571429h0v30.857142857142858h0Z" style="fill: #f3a583;"></path><path d="M240,70.28571428571429h200.00400000000002v30.857142857142858h-200.00400000000002Z" style="fill: #94c6da;"></path><path d="M440.004,70.28571428571429h133.336v30.857142857142858h-133.336Z" style="fill: #1770ab;"></path><path d="M106.66399999999999,104.57142857142858h133.336v30.857142857142858h-133.336Z" style="fill: #c30d24;"></path><path d="M240,104.57142857142858h0v30.857142857142858h0Z" style="fill: #f3a583;"></path><path d="M240,104.57142857142858h133.336v30.857142857142858h-133.336Z" style="fill: #94c6da;"></path><path d="M373.336,104.57142857142858h133.336v30.857142857142858h-133.336Z" style="fill: #1770ab;"></path><path d="M39.99599999999998,138.85714285714286h66.668v30.857142857142858h-66.668Z" style="fill: #c30d24;"></path><path d="M106.66399999999999,138.85714285714286h133.336v30.857142857142858h-133.336Z" style="fill: #f3a583;"></path><path d="M240,138.85714285714286h0v30.857142857142858h0Z" style="fill: #94c6da;"></path><path d="M240,138.85714285714286h133.336v30.857142857142858h-133.336Z" style="fill: #1770ab;"></path><path d="M106.66399999999999,173.14285714285714h133.336v30.857142857142858h-133.336Z" style="fill: #c30d24;"></path><path d="M240,173.14285714285714h0v30.857142857142858h0Z" style="fill: #f3a583;"></path><path d="M240,173.14285714285714h133.336v30.857142857142858h-133.336Z" style="fill: #94c6da;"></path><path d="M373.336,173.14285714285714h66.668v30.857142857142858h-66.668Z" style="fill: #1770ab;"></path><path d="M106.66399999999999,207.42857142857144h0v30.857142857142858h0Z" style="fill: #c30d24;"></path><path d="M106.66399999999999,207.42857142857144h133.336v30.857142857142858h-133.336Z" style="fill: #f3a583;"></path><path d="M240,207.42857142857144h0v30.857142857142858h0Z" style="fill: #94c6da;"></path><path d="M240,207.42857142857144h200.00400000000002v30.857142857142858h-200.00400000000002Z" style="fill: #1770ab;"></path><path d="M173.332,241.71428571428572h0v30.857142857142858h0Z" style="fill: #c30d24;"></path><path d="M173.332,241.71428571428572h66.668v30.857142857142858h-66.668Z" style="fill: #f3a583;"></path><path d="M240,241.71428571428572h133.336v30.857142857142858h-133.336Z" style="fill: #94c6da;"></path><path d="M373.336,241.71428571428572h66.668v30.857142857142858h-66.668Z" style="fill: #1770ab;"></path><path d="M39.99599999999998,276h133.336v30.857142857142858h-133.336Z" style="fill: #c30d24;"></path><path d="M173.332,276h66.668v30.857142857142858h-66.668Z" style="fill: #f3a583;"></path><path d="M240,276h133.336v30.857142857142858h-133.336Z" style="fill: #94c6da;"></path><path d="M373.336,276h66.668v30.857142857142858h-66.668Z" style="fill: #1770ab;"></path><path d="M106.66399999999999,310.2857142857143h133.336v30.857142857142858h-133.336Z" style="fill: #c30d24;"></path><path d="M240,310.2857142857143h0v30.857142857142858h0Z" style="fill: #f3a583;"></path><path d="M240,310.2857142857143h200.00400000000002v30.857142857142858h-200.00400000000002Z" style="fill: #94c6da;"></path><path d="M440.004,310.2857142857143h66.668v30.857142857142858h-66.668Z" style="fill: #1770ab;"></path><path d="M106.66399999999999,344.57142857142856h133.336v30.857142857142858h-133.336Z" style="fill: #c30d24;"></path><path d="M240,344.57142857142856h0v30.857142857142858h0Z" style="fill: #f3a583;"></path><path d="M240,344.57142857142856h200.00400000000002v30.857142857142858h-200.00400000000002Z" style="fill: #94c6da;"></path><path d="M440.004,344.57142857142856h66.668v30.857142857142858h-66.668Z" style="fill: #1770ab;"></path><path d="M106.66399999999999,378.85714285714283h66.668v30.857142857142858h-66.668Z" style="fill: #c30d24;"></path><path d="M173.332,378.85714285714283h66.668v30.857142857142858h-66.668Z" style="fill: #f3a583;"></path><path d="M240,378.85714285714283h200.00400000000002v30.857142857142858h-200.00400000000002Z" style="fill: #94c6da;"></path><path d="M440.004,378.85714285714283h66.668v30.857142857142858h-66.668Z" style="fill: #1770ab;"></path><path d="M106.66399999999999,413.14285714285717h133.336v30.857142857142858h-133.336Z" style="fill: #c30d24;"></path><path d="M240,413.14285714285717h0v30.857142857142858h0Z" style="fill: #f3a583;"></path><path d="M240,413.14285714285717h133.336v30.857142857142858h-133.336Z" style="fill: #94c6da;"></path><path d="M373.336,413.14285714285717h66.668v30.857142857142858h-66.668Z" style="fill: #1770ab;"></path><path d="M106.66399999999999,447.42857142857144h133.336v30.857142857142858h-133.336Z" style="fill: #c30d24;"></path><path d="M240,447.42857142857144h0v30.857142857142858h0Z" style="fill: #f3a583;"></path><path d="M240,447.42857142857144h200.00400000000002v30.857142857142858h-200.00400000000002Z" style="fill: #94c6da;"></path><path d="M440.004,447.42857142857144h66.668v30.857142857142858h-66.668Z" style="fill: #1770ab;"></path></g><g class="mark-group role-legend"><g transform="translate(658,0)"><path class="background" d="M0,0h169v84h-169Z" style="pointer-events: none; fill: none;"></path><g><g class="mark-group role-legend-entry"><g transform="translate(0,16)"><path class="background" d="M0,0h0v0h0Z" style="pointer-events: none; fill: none;"></path><g><g class="mark-group role-scope"><g transform="translate(0,0)"><path class="background" d="M0,0h169v12h-169Z" style="pointer-events: none; fill: none; opacity: 1;"></path><g><g class="mark-symbol role-legend-symbol" style="pointer-events: none;"><path transform="translate(6,6)" d="M-5,-5h10v10h-10Z" style="fill: #c30d24; stroke-width: 1.5; opacity: 1;"></path></g><g class="mark-text role-legend-label" style="pointer-events: none;"><text text-anchor="start" transform="translate(16,9)" style="font: 10px sans-serif; fill: #000; opacity: 1;">Totalmente en desa…</text></g></g></g><g transform="translate(0,14)"><path class="background" d="M0,0h169v12h-169Z" style="pointer-events: none; fill: none; opacity: 1;"></path><g><g class="mark-symbol role-legend-symbol" style="pointer-events: none;"><path transform="translate(6,6)" d="M-5,-5h10v10h-10Z" style="fill: #f3a583; stroke-width: 1.5; opacity: 1;"></path></g><g class="mark-text role-legend-label" style="pointer-events: none;"><text text-anchor="start" transform="translate(16,9)" style="font: 10px sans-serif; fill: #000; opacity: 1;">Desacuerdo</text></g></g></g><g transform="translate(0,28)"><path class="background" d="M0,0h169v12h-169Z" style="pointer-events: none; fill: none; opacity: 1;"></path><g><g class="mark-symbol role-legend-symbol" style="pointer-events: none;"><path transform="translate(6,6)" d="M-5,-5h10v10h-10Z" style="fill: #d9d9d9; stroke-width: 1.5; opacity: 1;"></path></g><g class="mark-text role-legend-label" style="pointer-events: none;"><text text-anchor="start" transform="translate(16,9)" style="font: 10px sans-serif; fill: #000; opacity: 1;">Neutral</text></g></g></g><g transform="translate(0,42)"><path class="background" d="M0,0h169v12h-169Z" style="pointer-events: none; fill: none; opacity: 1;"></path><g><g class="mark-symbol role-legend-symbol" style="pointer-events: none;"><path transform="translate(6,6)" d="M-5,-5h10v10h-10Z" style="fill: #94c6da; stroke-width: 1.5; opacity: 1;"></path></g><g class="mark-text role-legend-label" style="pointer-events: none;"><text text-anchor="start" transform="translate(16,9)" style="font: 10px sans-serif; fill: #000; opacity: 1;">De acuerdo</text></g></g></g><g transform="translate(0,56)"><path class="background" d="M0,0h169v12h-169Z" style="pointer-events: none; fill: none; opacity: 1;"></path><g><g class="mark-symbol role-legend-symbol" style="pointer-events: none;"><path transform="translate(6,6)" d="M-5,-5h10v10h-10Z" style="fill: #1770ab; stroke-width: 1.5; opacity: 1;"></path></g><g class="mark-text role-legend-label" style="pointer-events: none;"><text text-anchor="start" transform="translate(16,9)" style="font: 10px sans-serif; fill: #000; opacity: 1;">Totalmente de Acue…</text></g></g></g></g></g></g></g><g class="mark-text role-legend-title" style="pointer-events: none;"><text text-anchor="start" transform="translate(0,9)" style="font: bold 11px sans-serif; fill: #000; opacity: 1;">Respuesta</text></g></g></g></g><g class="mark-group role-axis"><g transform="translate(0.5,480.5)"><path class="background" d="M0,0h0v0h0Z" style="pointer-events: none; fill: none;"></path><g><g class="mark-rule role-axis-tick" style="pointer-events: none;"><line transform="translate(0,0)" x2="0" y2="5" style="fill: none; stroke: #888; stroke-width: 1; opacity: 1;"></line><line transform="translate(40,0)" x2="0" y2="5" style="fill: none; stroke: #888; stroke-width: 1; opacity: 1;"></line><line transform="translate(80,0)" x2="0" y2="5" style="fill: none; stroke: #888; stroke-width: 1; opacity: 1;"></line><line transform="translate(120,0)" x2="0" y2="5" style="fill: none; stroke: #888; stroke-width: 1; opacity: 1;"></line><line transform="translate(160,0)" x2="0" y2="5" style="fill: none; stroke: #888; stroke-width: 1; opacity: 1;"></line><line transform="translate(200,0)" x2="0" y2="5" style="fill: none; stroke: #888; stroke-width: 1; opacity: 1;"></line><line transform="translate(240,0)" x2="0" y2="5" style="fill: none; stroke: #888; stroke-width: 1; opacity: 1;"></line><line transform="translate(280,0)" x2="0" y2="5" style="fill: none; stroke: #888; stroke-width: 1; opacity: 1;"></line><line transform="translate(320,0)" x2="0" y2="5" style="fill: none; stroke: #888; stroke-width: 1; opacity: 1;"></line><line transform="translate(360,0)" x2="0" y2="5" style="fill: none; stroke: #888; stroke-width: 1; opacity: 1;"></line><line transform="translate(400,0)" x2="0" y2="5" style="fill: none; stroke: #888; stroke-width: 1; opacity: 1;"></line><line transform="translate(440,0)" x2="0" y2="5" style="fill: none; stroke: #888; stroke-width: 1; opacity: 1;"></line><line transform="translate(480,0)" x2="0" y2="5" style="fill: none; stroke: #888; stroke-width: 1; opacity: 1;"></line><line transform="translate(520,0)" x2="0" y2="5" style="fill: none; stroke: #888; stroke-width: 1; opacity: 1;"></line><line transform="translate(560,0)" x2="0" y2="5" style="fill: none; stroke: #888; stroke-width: 1; opacity: 1;"></line><line transform="translate(600,0)" x2="0" y2="5" style="fill: none; stroke: #888; stroke-width: 1; opacity: 1;"></line><line transform="translate(640,0)" x2="0" y2="5" style="fill: none; stroke: #888; stroke-width: 1; opacity: 1;"></line></g><g class="mark-text role-axis-label" style="pointer-events: none;"><text text-anchor="start" transform="translate(0,15)" style="font: 10px sans-serif; fill: #000; opacity: 1;">-60</text><text text-anchor="middle" transform="translate(40,15)" style="font: 10px sans-serif; fill: #000; opacity: 1;">-50</text><text text-anchor="middle" transform="translate(80,15)" style="font: 10px sans-serif; fill: #000; opacity: 1;">-40</text><text text-anchor="middle" transform="translate(120,15)" style="font: 10px sans-serif; fill: #000; opacity: 1;">-30</text><text text-anchor="middle" transform="translate(160,15)" style="font: 10px sans-serif; fill: #000; opacity: 1;">-20</text><text text-anchor="middle" transform="translate(200,15)" style="font: 10px sans-serif; fill: #000; opacity: 1;">-10</text><text text-anchor="middle" transform="translate(240,15)" style="font: 10px sans-serif; fill: #000; opacity: 1;">0</text><text text-anchor="middle" transform="translate(280,15)" style="font: 10px sans-serif; fill: #000; opacity: 1;">10</text><text text-anchor="middle" transform="translate(320,15)" style="font: 10px sans-serif; fill: #000; opacity: 1;">20</text><text text-anchor="middle" transform="translate(360,15)" style="font: 10px sans-serif; fill: #000; opacity: 1;">30</text><text text-anchor="middle" transform="translate(400,15)" style="font: 10px sans-serif; fill: #000; opacity: 1;">40</text><text text-anchor="middle" transform="translate(440,15)" style="font: 10px sans-serif; fill: #000; opacity: 1;">50</text><text text-anchor="middle" transform="translate(480,15)" style="font: 10px sans-serif; fill: #000; opacity: 1;">60</text><text text-anchor="middle" transform="translate(520,15)" style="font: 10px sans-serif; fill: #000; opacity: 1;">70</text><text text-anchor="middle" transform="translate(560,15)" style="font: 10px sans-serif; fill: #000; opacity: 1;">80</text><text text-anchor="middle" transform="translate(600,15)" style="font: 10px sans-serif; fill: #000; opacity: 1;">90</text><text text-anchor="end" transform="translate(640,15)" style="font: 10px sans-serif; fill: #000; opacity: 1;">100</text></g><g class="mark-rule role-axis-domain" style="pointer-events: none;"><line transform="translate(0,0)" x2="640" y2="0" style="fill: none; stroke: #888; stroke-width: 1; opacity: 1;"></line></g><g class="mark-text role-axis-title" style="pointer-events: none;"><text text-anchor="middle" transform="translate(320,31)" style="font: bold 11px sans-serif; fill: #000; opacity: 1;">Porcentaje</text></g></g></g></g><g class="mark-group role-axis"><g transform="translate(-4.5,0.5)"><path class="background" d="M0,0h0v0h0Z" style="pointer-events: none; fill: none;"></path><g><g class="mark-text role-axis-label" style="pointer-events: none;"><text text-anchor="end" transform="translate(-2,19.142857142857153)" style="font: 10px sans-serif; fill: #000; opacity: 1;">Pregunta 01</text><text text-anchor="end" transform="translate(-2,53.42857142857144)" style="font: 10px sans-serif; fill: #000; opacity: 1;">Pregunta 02</text><text text-anchor="end" transform="translate(-2,87.71428571428572)" style="font: 10px sans-serif; fill: #000; opacity: 1;">Pregunta 03</text><text text-anchor="end" transform="translate(-2,122.00000000000001)" style="font: 10px sans-serif; fill: #000; opacity: 1;">Pregunta 04</text><text text-anchor="end" transform="translate(-2,156.28571428571428)" style="font: 10px sans-serif; fill: #000; opacity: 1;">Pregunta 05</text><text text-anchor="end" transform="translate(-2,190.57142857142856)" style="font: 10px sans-serif; fill: #000; opacity: 1;">Pregunta 06</text><text text-anchor="end" transform="translate(-2,224.85714285714286)" style="font: 10px sans-serif; fill: #000; opacity: 1;">Pregunta 07</text><text text-anchor="end" transform="translate(-2,259.14285714285717)" style="font: 10px sans-serif; fill: #000; opacity: 1;">Pregunta 08</text><text text-anchor="end" transform="translate(-2,293.42857142857144)" style="font: 10px sans-serif; fill: #000; opacity: 1;">Pregunta 09</text><text text-anchor="end" transform="translate(-2,327.7142857142857)" style="font: 10px sans-serif; fill: #000; opacity: 1;">Pregunta 10</text><text text-anchor="end" transform="translate(-2,362)" style="font: 10px sans-serif; fill: #000; opacity: 1;">Pregunta 11</text><text text-anchor="end" transform="translate(-2,396.2857142857143)" style="font: 10px sans-serif; fill: #000; opacity: 1;">Pregunta 12</text><text text-anchor="end" transform="translate(-2,430.5714285714286)" style="font: 10px sans-serif; fill: #000; opacity: 1;">Pregunta 13</text><text text-anchor="end" transform="translate(-2,464.8571428571429)" style="font: 10px sans-serif; fill: #000; opacity: 1;">Pregunta 14</text></g><g class="mark-text role-axis-title" style="pointer-events: none;"><text text-anchor="middle" transform="translate(-95,240) rotate(-90) translate(0,-2)" style="font: bold 11px sans-serif; fill: #000; opacity: 1;">Pregunta</text></g></g></g></g></g></g></g></g></svg>